<svg width="60" height="46" viewBox="0 0 60 46" fill="none" xmlns="http://www.w3.org/2000/svg">
<g clip-path="url(#clip0_50_7913)">
<rect y="0.5" width="60" height="45" rx="2" fill="white"/>
<path fill-rule="evenodd" clip-rule="evenodd" d="M0 0.5H25.7143V21.5H0V0.5Z" fill="#1A47B8"/>
<path fill-rule="evenodd" clip-rule="evenodd" d="M25.7143 0.5V3.5H60V0.5H25.7143ZM25.7143 6.5V9.5H60V6.5H25.7143ZM25.7143 12.5V15.5H60V12.5H25.7143ZM25.7143 18.5V21.5H60V18.5H25.7143ZM0 24.5V27.5H60V24.5H0ZM0 30.5V33.5H60V30.5H0ZM0 36.5V39.5H60V36.5H0ZM0 42.5V45.5H60V42.5H0Z" fill="#F93939"/>
<path fill-rule="evenodd" clip-rule="evenodd" d="M2.85693 3.5V6.5H5.71408V3.5H2.85693ZM8.57122 3.5V6.5H11.4284V3.5H8.57122ZM14.2855 3.5V6.5H17.1426V3.5H14.2855ZM19.9998 3.5V6.5H22.8569V3.5H19.9998ZM17.1426 6.5V9.5H19.9998V6.5H17.1426ZM11.4284 6.5V9.5H14.2855V6.5H11.4284ZM5.71408 6.5V9.5H8.57122V6.5H5.71408ZM2.85693 9.5V12.5H5.71408V9.5H2.85693ZM8.57122 9.5V12.5H11.4284V9.5H8.57122ZM14.2855 9.5V12.5H17.1426V9.5H14.2855ZM19.9998 9.5V12.5H22.8569V9.5H19.9998ZM2.85693 15.5V18.5H5.71408V15.5H2.85693ZM8.57122 15.5V18.5H11.4284V15.5H8.57122ZM14.2855 15.5V18.5H17.1426V15.5H14.2855ZM19.9998 15.5V18.5H22.8569V15.5H19.9998ZM17.1426 12.5V15.5H19.9998V12.5H17.1426ZM11.4284 12.5V15.5H14.2855V12.5H11.4284ZM5.71408 12.5V15.5H8.57122V12.5H5.71408Z" fill="white"/>
</g>
<defs>
<clipPath id="clip0_50_7913">
<rect y="0.5" width="60" height="45" rx="2" fill="white"/>
</clipPath>
</defs>
</svg>
