<svg width="50" height="50" fill="none" xmlns="http://www.w3.org/2000/svg"><path d="M8.444 20.419a1.865 1.865 0 0 1 2.471-1.267l.716.275c.17.065.333.149.486.249l1.759 1.154c.26.17.482.395.65.658l.53.83a6.808 6.808 0 0 1 1.07 3.664v5a1.873 1.873 0 0 0 2.812 1.619l11.18-6.484a1.159 1.159 0 0 0-.008-2.01L12.26 13.934a7.797 7.797 0 0 1-2.044-1.682l-.229-.265a6.362 6.362 0 0 1-1.372-2.687l-.057-.243a4.226 4.226 0 0 1-.114-.975V6.947a1.785 1.785 0 0 1 2.202-1.735l.584.14c.26.063.511.16.745.29l29.846 16.565 1.965 1.105c.276.155.514.37.698.627l.09.126a1.775 1.775 0 0 1-.582 2.579L11.753 44.632c-.433.241-.92.368-1.417.368h-.115a1.8 1.8 0 0 1-.372-.039l-.044-.009a1.716 1.716 0 0 1-1.361-1.679V20.419Z" fill="url(#a)"/><circle cx="23.333" cy="25" r="2.5" fill="url(#b)"/><circle cx="13.75" cy="17.917" r="1.25" fill="url(#c)"/><circle cx="6.667" cy="13.333" r=".833" fill="url(#d)"/><defs><linearGradient id="a" x1="8.444" y1="5" x2="45.791" y2="5.753" gradientUnits="userSpaceOnUse"><stop stop-color="#4AB9FF"/><stop offset="1" stop-color="#0084F3"/></linearGradient><linearGradient id="b" x1="20.833" y1="22.5" x2="25.941" y2="22.613" gradientUnits="userSpaceOnUse"><stop stop-color="#4AB9FF"/><stop offset="1" stop-color="#0084F3"/></linearGradient><linearGradient id="c" x1="12.5" y1="16.667" x2="15.054" y2="16.723" gradientUnits="userSpaceOnUse"><stop stop-color="#4AB9FF"/><stop offset="1" stop-color="#0084F3"/></linearGradient><linearGradient id="d" x1="5.833" y1="12.5" x2="7.536" y2="12.537" gradientUnits="userSpaceOnUse"><stop stop-color="#4AB9FF"/><stop offset="1" stop-color="#0084F3"/></linearGradient></defs></svg>