<svg width="28" height="28" fill="none" xmlns="http://www.w3.org/2000/svg"><path d="M3.5 23.333h.014c.643 0 1.167-.524 1.167-1.166 0-.643-.524-1.167-1.167-1.167h-.013c-.643 0-1.167.524-1.167 1.167 0 .642.524 1.166 1.167 1.166ZM9.334 22.166a5.833 5.833 0 0 0-5.833-5.833c-.643 0-1.167.524-1.167 1.167 0 .642.524 1.166 1.167 1.166a3.507 3.507 0 0 1 3.5 3.5c0 .643.524 1.167 1.166 1.167.643 0 1.167-.524 1.167-1.167Z" fill="#fff"/><path d="M14 22.166c0-5.8-4.698-10.5-10.5-10.5-.642 0-1.166.525-1.166 1.167 0 .643.524 1.167 1.167 1.167 2.26 0 4.293.911 5.774 2.392a8.123 8.123 0 0 1 2.392 5.774c0 .643.524 1.167 1.167 1.167s1.167-.524 1.167-1.166Z" fill="#fff"/><path d="M17.5 23.333H21a4.664 4.664 0 0 0 4.668-4.666V9.332A4.664 4.664 0 0 0 21 4.666H6.99A4.672 4.672 0 0 0 2.636 7.78a1.17 1.17 0 0 0 .711 1.49 1.17 1.17 0 0 0 1.49-.71 2.334 2.334 0 0 1 2.179-1.555h-.01 14a2.338 2.338 0 0 1 2.334 2.334v9.333a2.338 2.338 0 0 1-2.333 2.333h-3.5c-.643 0-1.167.524-1.167 1.167a1.161 1.161 0 0 0 1.162 1.162Z" fill="#fff"/></svg>