<svg width="24" height="24" fill="none" xmlns="http://www.w3.org/2000/svg"><path d="M2.1 6A5 5 0 0 1 7 2h10a5 5 0 0 1 4.9 4H2.1ZM2 8v9a5 5 0 0 0 5 5h10a5 5 0 0 0 5-5V8H2Zm4 3a1 1 0 1 1 2 0 1 1 0 0 1-2 0Zm0 4a1 1 0 1 1 2 0 1 1 0 0 1-2 0Zm5-5a1 1 0 1 1 0 2 1 1 0 0 1 0-2Zm-1 5a1 1 0 1 1 2 0 1 1 0 0 1-2 0Zm5-5a1 1 0 1 1 0 2 1 1 0 0 1 0-2Z" fill="url(#a)"/><defs><linearGradient id="a" x1="2" y1="2" x2="22.431" y2="2.45" gradientUnits="userSpaceOnUse"><stop stop-color="#4AB9FF"/><stop offset="1" stop-color="#0084F3"/></linearGradient></defs></svg>