<svg width="25" height="24" fill="none" xmlns="http://www.w3.org/2000/svg"><path fill-rule="evenodd" clip-rule="evenodd" d="M2.4 12c0-5.52 4.47-10 10-10 5.52 0 10 4.48 10 10 0 5.53-4.48 10-10 10-5.53 0-10-4.47-10-10Zm12.23 1.83 1.62-5.12a.45.45 0 0 0-.56-.57l-5.12 1.6c-.21.07-.38.23-.44.44l-1.6 5.13c-.11.34.22.67.56.56l5.1-1.6c.21-.06.38-.23.44-.44Z" fill="url(#a)"/><defs><linearGradient id="a" x1="2.4" y1="2" x2="22.831" y2="2.451" gradientUnits="userSpaceOnUse"><stop stop-color="#4AB9FF"/><stop offset="1" stop-color="#0084F3"/></linearGradient></defs></svg>