<svg width="36" height="36" fill="none" xmlns="http://www.w3.org/2000/svg"><rect y=".708" width="36" height="34.585" rx="17.292" fill="url(#a)" fill-opacity=".15"/><path d="M19.2 25.293c3.849-.531 6.8-3.575 6.8-7.252 0-4.05-3.582-7.333-8-7.333s-8 3.283-8 7.333c0 3.677 2.951 6.721 6.8 7.252V20.24h-1.2c-.318 0-.623-.116-.848-.322a1.055 1.055 0 0 1-.352-.778c0-.291.126-.571.351-.777.226-.207.53-.323.849-.323h1.2v-1.466c0-.681.295-1.334.82-1.815a2.934 2.934 0 0 1 1.98-.752h.4c.318 0 .623.116.849.322.225.207.351.486.351.778 0 .292-.126.572-.351.778-.226.206-.53.322-.849.322h-.4a.42.42 0 0 0-.283.107.352.352 0 0 0-.117.26v1.466h1.2c.318 0 .623.116.849.323.225.206.351.486.351.777 0 .292-.126.572-.352.778-.225.206-.53.322-.848.322h-1.2v5.052Z" fill="url(#b)"/><defs><linearGradient id="a" x1="0" y1=".708" x2="36.774" y2="1.552" gradientUnits="userSpaceOnUse"><stop stop-color="#4AB9FF"/><stop offset="1" stop-color="#0084F3"/></linearGradient><linearGradient id="b" x1="10" y1="10.708" x2="26.343" y2="11.103" gradientUnits="userSpaceOnUse"><stop stop-color="#4AB9FF"/><stop offset="1" stop-color="#0084F3"/></linearGradient></defs></svg>