<svg width="24" height="24" fill="none" xmlns="http://www.w3.org/2000/svg"><g clip-path="url(#a)"><path d="M19.047 4.954A9.965 9.965 0 1 0 4.954 19.047 9.967 9.967 0 1 0 19.047 4.954ZM3.458 12c0-.756.1-1.509.298-2.238.327.703.801 1.31 1.124 2.031.417.927 1.536.67 2.03 1.482.439.722-.03 1.634.299 2.388.238.548.8.668 1.188 1.068.397.404.388.957.449 1.484a13.567 13.567 0 0 0 .335 1.85C5.85 18.895 3.458 15.722 3.458 12ZM12 20.542c-.477 0-.953-.04-1.424-.12.005-.12.008-.233.02-.31.108-.708.462-1.4.94-1.93.472-.522 1.118-.875 1.517-1.468.39-.578.508-1.356.347-2.032-.238-.999-1.594-1.332-2.325-1.873-.42-.312-.795-.793-1.347-.832-.254-.018-.468.037-.72-.028-.231-.06-.413-.185-.66-.152-.46.06-.75.552-1.245.486-.47-.063-.953-.613-1.06-1.06-.137-.575.318-.761.805-.812.204-.021.432-.045.627.03.257.095.379.347.61.474.432.238.52-.141.454-.526-.1-.576-.215-.81.298-1.206.356-.274.66-.471.604-.962-.034-.288-.192-.418-.045-.705.112-.219.418-.416.618-.546.516-.337 2.209-.312 1.517-1.253-.203-.276-.578-.77-.934-.838-.445-.084-.643.413-.953.632-.32.226-.944.483-1.264.133-.432-.471.286-.625.444-.955.074-.153 0-.366-.123-.567.16-.068.323-.13.49-.188a.694.694 0 0 0 .355.133c.298.02.578-.141.838.062.288.222.496.503.879.573.37.067.762-.149.854-.528.055-.23 0-.474-.054-.712a8.49 8.49 0 0 1 4.671 1.433c-.089-.034-.195-.03-.326.031-.27.126-.653.445-.684.762-.036.36.494.41.746.41.378 0 .76-.169.639-.606-.053-.19-.125-.386-.241-.506.279.194.546.404.8.63l-.011.012c-.257.266-.554.478-.73.803a.702.702 0 0 1-.513.396c-.138.032-.295.044-.411.137-.322.254-.139.863.166 1.046.386.23.958.122 1.25-.207.226-.258.36-.706.77-.706.18 0 .352.07.48.196.17.175.136.34.172.558.064.389.407.178.616-.018.152.27.289.55.41.835-.229.33-.411.69-.963.305-.33-.23-.534-.565-.95-.67-.362-.088-.733.004-1.091.066-.407.07-.89.102-1.199.41-.298.297-.456.695-.774.993-.614.579-.874 1.21-.476 2.028.383.786 1.183 1.212 2.046 1.156.849-.056 1.73-.548 1.706.685-.01.436.082.738.216 1.143.124.374.115.736.144 1.122.027.452.098.9.21 1.338A8.53 8.53 0 0 1 12 20.542Z" fill="url(#b)"/></g><defs><linearGradient id="b" x1="2" y1="2" x2="22.431" y2="2.45" gradientUnits="userSpaceOnUse"><stop stop-color="#4AB9FF"/><stop offset="1" stop-color="#0084F3"/></linearGradient><clipPath id="a"><rect width="24" height="24" rx="12" fill="#fff"/></clipPath></defs></svg>