<svg width="25" height="24" fill="none" xmlns="http://www.w3.org/2000/svg"><path d="M9.935 20.773v-3.057c0-.78.637-1.414 1.423-1.414h2.874c.378 0 .74.15 1.007.414.267.265.417.625.417 1v3.057c-.002.325.126.637.356.867.23.23.544.36.87.36h1.962a3.46 3.46 0 0 0 2.443-1 3.41 3.41 0 0 0 1.013-2.422V9.867c0-.735-.328-1.431-.896-1.902l-6.67-5.29a3.097 3.097 0 0 0-3.949.072L4.267 7.965A2.474 2.474 0 0 0 3.3 9.867v8.702C3.3 20.464 4.847 22 6.756 22h1.916c.679 0 1.23-.544 1.236-1.218l.027-.009Z" fill="url(#a)"/><defs><linearGradient id="a" x1="3.3" y1="2" x2="22.71" y2="2.407" gradientUnits="userSpaceOnUse"><stop stop-color="#4AB9FF"/><stop offset="1" stop-color="#0084F3"/></linearGradient></defs></svg>