<svg width="25" height="24" fill="none" xmlns="http://www.w3.org/2000/svg"><path d="M9.957 20.771v-3.066c0-.78.636-1.414 1.424-1.42h2.886c.792 0 1.433.636 1.433 1.42v3.076c0 .662.534 1.204 1.203 1.219h1.924c1.918 0 3.473-1.54 3.473-3.438v0-8.724a2.44 2.44 0 0 0-.962-1.905l-6.58-5.248a3.18 3.18 0 0 0-3.945 0L4.262 7.943A2.42 2.42 0 0 0 3.3 9.847v8.715C3.3 20.46 4.855 22 6.773 22h1.924c.685 0 1.24-.55 1.24-1.229v0" stroke="#9E9E9E" stroke-width="1.5" stroke-linecap="round" stroke-linejoin="round"/></svg>