<svg width="24" height="24" fill="none" xmlns="http://www.w3.org/2000/svg"><path d="M5.99 4.928a.75.75 0 0 1 0 1.06 8.5 8.5 0 0 0 0 12.021.75.75 0 0 1-1.061 1.06c-3.905-3.905-3.905-10.236 0-14.14a.75.75 0 0 1 1.06 0Zm13.08 0c3.905 3.905 3.905 10.237 0 14.142a.75.75 0 0 1-1.06-1.06 8.503 8.503 0 0 0 1.843-9.264 8.502 8.502 0 0 0-1.843-2.758.75.75 0 1 1 1.06-1.06ZM8.818 7.756a.75.75 0 0 1 0 1.06 4.5 4.5 0 0 0 0 6.365.75.75 0 0 1-1.06 1.06 6 6 0 0 1 0-8.485.75.75 0 0 1 1.06 0Zm7.425 0a6 6 0 0 1 0 8.485.752.752 0 0 1-1.07.01.75.75 0 0 1 .009-1.07 4.5 4.5 0 0 0 0-6.364.75.75 0 0 1 1.06-1.06M12 10.5a1.5 1.5 0 1 1 0 3 1.5 1.5 0 0 1 0-3Z" fill="#9E9E9E"/></svg>