<svg width="42" height="32" viewBox="0 0 42 32" fill="none" xmlns="http://www.w3.org/2000/svg">
<g clip-path="url(#clip0_8655_2215)">
<path d="M7.48312 31.8415V29.7236C7.48312 28.9115 6.9888 28.3822 6.14153 28.3822C5.71797 28.3822 5.25904 28.5233 4.94129 28.9823C4.69429 28.5939 4.34133 28.3822 3.8118 28.3822C3.45867 28.3822 3.10587 28.488 2.82334 28.8763V28.4528H2.08203V31.8415H2.82334V29.9706C2.82334 29.3706 3.14109 29.0881 3.6354 29.0881C4.12939 29.0881 4.3767 29.4058 4.3767 29.9706V31.8415H5.11801V29.9706C5.11801 29.3706 5.47082 29.0881 5.92975 29.0881C6.42406 29.0881 6.67106 29.4058 6.67106 29.9706V31.8415H7.48312ZM18.4614 28.4528H17.2613V27.4291H16.52V28.4528H15.8493V29.1233H16.5198V30.6767C16.5198 31.4534 16.8376 31.9121 17.6848 31.9121C18.0026 31.9121 18.3554 31.8063 18.6027 31.6651L18.3908 31.0296C18.179 31.1708 17.932 31.2062 17.7554 31.2062C17.4025 31.2062 17.2613 30.9944 17.2613 30.6413V29.1233H18.4614V28.4528ZM24.7449 28.382C24.3214 28.382 24.039 28.5939 23.8625 28.8763V28.4528H23.1211V31.8415H23.8625V29.9354C23.8625 29.3706 24.1094 29.0529 24.5684 29.0529C24.7096 29.0529 24.8861 29.0883 25.0273 29.1235L25.2391 28.4175C25.0979 28.3822 24.8861 28.3822 24.7449 28.3822V28.382ZM15.2491 28.7351C14.896 28.488 14.4019 28.3822 13.8723 28.3822C13.0252 28.3822 12.4605 28.8057 12.4605 29.4764C12.4605 30.0413 12.884 30.3589 13.6253 30.4649L13.9783 30.5003C14.3667 30.5707 14.5784 30.6767 14.5784 30.8532C14.5784 31.1002 14.2961 31.2768 13.8018 31.2768C13.3076 31.2768 12.9193 31.1002 12.6721 30.9238L12.3191 31.4886C12.7075 31.7709 13.237 31.9121 13.7664 31.9121C14.7548 31.9121 15.3197 31.4534 15.3197 30.8179C15.3197 30.2177 14.8608 29.9 14.1547 29.7942L13.8018 29.7588C13.484 29.7234 13.237 29.653 13.237 29.4412C13.237 29.1941 13.484 29.0529 13.8723 29.0529C14.2961 29.0529 14.7196 29.2293 14.9314 29.3352L15.2491 28.7351ZM34.9468 28.3822C34.5231 28.3822 34.2407 28.5939 34.0642 28.8763V28.4528H33.3229V31.8415H34.0642V29.9354C34.0642 29.3706 34.3113 29.0529 34.7701 29.0529C34.9115 29.0529 35.088 29.0883 35.2292 29.1235L35.441 28.4175C35.2998 28.3822 35.088 28.3822 34.9468 28.3822ZM25.4863 30.1471C25.4863 31.1708 26.1922 31.9121 27.2866 31.9121C27.7808 31.9121 28.1337 31.8063 28.4867 31.524L28.1337 30.9238C27.8514 31.1356 27.569 31.2414 27.2512 31.2414C26.6511 31.2414 26.2276 30.8179 26.2276 30.1471C26.2276 29.5118 26.6511 29.0881 27.2512 29.0529C27.569 29.0529 27.8514 29.1587 28.1337 29.3706L28.4867 28.7705C28.1337 28.488 27.7808 28.3822 27.2866 28.3822C26.1922 28.3822 25.4863 29.1235 25.4863 30.1471ZM32.3346 30.1471V28.4528H31.5933V28.8763C31.3461 28.5587 30.9931 28.3822 30.5342 28.3822C29.5811 28.3822 28.8398 29.1235 28.8398 30.1471C28.8398 31.1708 29.5811 31.9121 30.5342 31.9121C31.0284 31.9121 31.3815 31.7357 31.5933 31.418V31.8415H32.3346V30.1471ZM29.6163 30.1471C29.6163 29.547 30.0047 29.0529 30.64 29.0529C31.2401 29.0529 31.6639 29.5118 31.6639 30.1471C31.6639 30.7473 31.2401 31.2414 30.64 31.2414C30.0047 31.206 29.6163 30.7473 29.6163 30.1471ZM20.756 28.3822C19.7676 28.3822 19.0615 29.0881 19.0615 30.1471C19.0615 31.2062 19.7674 31.9121 20.7913 31.9121C21.2854 31.9121 21.7797 31.7709 22.1681 31.4534L21.8149 30.9238C21.5326 31.1356 21.1796 31.2768 20.8266 31.2768C20.3677 31.2768 19.9088 31.065 19.8028 30.4647H22.3092V30.1825C22.3446 29.0881 21.7091 28.3822 20.7559 28.3822H20.756ZM20.756 29.0175C21.2148 29.0175 21.5327 29.3 21.6032 29.8296H19.8382C19.9088 29.3706 20.2265 29.0175 20.756 29.0175ZM39.1475 30.1471V27.1113H38.4062V28.8763C38.1591 28.5587 37.8061 28.3822 37.3472 28.3822C36.3941 28.3822 35.6528 29.1235 35.6528 30.1471C35.6528 31.1708 36.3941 31.9121 37.3472 31.9121C37.8415 31.9121 38.1944 31.7357 38.4062 31.418V31.8415H39.1475V30.1471ZM36.4295 30.1471C36.4295 29.547 36.8176 29.0529 37.4531 29.0529C38.0532 29.0529 38.4768 29.5118 38.4768 30.1471C38.4768 30.7473 38.0532 31.2414 37.4531 31.2414C36.8176 31.206 36.4295 30.7473 36.4295 30.1471ZM11.6484 30.1471V28.4528H10.9071V28.8763C10.66 28.5587 10.307 28.3822 9.84806 28.3822C8.89498 28.3822 8.15367 29.1235 8.15367 30.1471C8.15367 31.1708 8.89498 31.9121 9.84806 31.9121C10.3424 31.9121 10.6953 31.7357 10.9071 31.418V31.8415H11.6484V30.1471ZM8.89498 30.1471C8.89498 29.547 9.28332 29.0529 9.91865 29.0529C10.5188 29.0529 10.9425 29.5118 10.9425 30.1471C10.9425 30.7473 10.5188 31.2414 9.91865 31.2414C9.28332 31.206 8.89498 30.7473 8.89498 30.1471Z" fill="black"/>
<path d="M15.002 2.71875H26.1216V22.6988H15.002V2.71875Z" fill="#FF5F00"/>
<path d="M15.7088 12.7082C15.7088 8.64868 17.615 5.04796 20.5448 2.71807C18.3916 1.02368 15.6736 0 12.7083 0C5.6833 0 0 5.6833 0 12.7082C0 19.7329 5.6833 25.4164 12.7082 25.4164C15.6734 25.4164 18.3915 24.3927 20.5448 22.6981C17.615 20.4036 15.7088 16.7677 15.7088 12.7082Z" fill="#EB001B"/>
<path d="M41.1249 12.7082C41.1249 19.7329 35.4416 25.4164 28.4167 25.4164C25.4515 25.4164 22.7334 24.3927 20.5801 22.6981C23.5453 20.3684 25.4163 16.7677 25.4163 12.7082C25.4163 8.64868 23.5099 5.04796 20.5801 2.71807C22.7332 1.02368 25.4515 0 28.4167 0C35.4416 0 41.125 5.71867 41.125 12.7082H41.1249Z" fill="#F79E1B"/>
</g>
<defs>
<clipPath id="clip0_8655_2215">
<rect width="41.1658" height="32" fill="white"/>
</clipPath>
</defs>
</svg>
