<svg width="25" height="24" fill="none" xmlns="http://www.w3.org/2000/svg"><path d="M19.532 7.417a1.955 1.955 0 0 0-1.925-2.291H7.593a1.954 1.954 0 0 0-1.925 2.291m11.974-2.291c.025-.239.039-.357.039-.455a1.833 1.833 0 0 0-1.638-1.827c-.097-.01-.216-.01-.455-.01H9.612c-.239 0-.359 0-.456.01a1.833 1.833 0 0 0-1.638 1.827c0 .098.013.217.04.455" stroke="#9E9E9E" stroke-width="1.5"/><path d="M15.35 17.5h-5.5" stroke="#9E9E9E" stroke-width="1.5" stroke-linecap="round"/><path d="M3.785 13.645c-.41-2.9-.614-4.35.255-5.29.869-.937 2.416-.937 5.509-.937h6.101c3.093 0 4.64 0 5.51.939.868.938.663 2.388.254 5.288l-.387 2.75c-.32 2.273-.48 3.41-1.303 4.092-.822.681-2.035.681-4.462.681H9.938c-2.426 0-3.64 0-4.462-.681-.822-.681-.982-1.818-1.303-4.092l-.387-2.75Z" stroke="#9E9E9E" stroke-width="1.5"/></svg>