<svg width="25" height="24" fill="none" xmlns="http://www.w3.org/2000/svg"><path d="M9.4 2.833H15.8c.213 0 .376 0 .519.014 1.015.1 1.847.71 2.2 1.533H6.682c.353-.823 1.184-1.433 2.2-1.533.14-.014.304-.014.518-.014ZM7.384 5.33c-1.274 0-2.32.77-2.668 1.792l-.022.064c.365-.11.746-.184 1.13-.232.99-.128 2.242-.128 3.696-.128h6.317c1.454 0 2.705 0 3.696.128.385.05.765.12 1.13.232l-.021-.064c-.349-1.022-1.394-1.792-2.669-1.792H7.383Z" fill="url(#a)"/><path fill-rule="evenodd" clip-rule="evenodd" d="M9.549 7.914h6.101c3.093 0 4.64 0 5.51.904.868.905.663 2.302.254 5.097l-.387 2.651c-.32 2.192-.48 3.288-1.303 3.944-.822.657-2.035.657-4.462.657H9.938c-2.426 0-3.64 0-4.462-.657-.822-.656-.982-1.752-1.303-3.944l-.387-2.65c-.41-2.796-.614-4.193.255-5.098.869-.904 2.416-.904 5.509-.904ZM8.933 17.5c0-.38.342-.687.764-.687h5.806c.421 0 .763.308.763.687 0 .38-.342.688-.763.688H9.697c-.422 0-.764-.308-.764-.688Z" fill="url(#b)"/><defs><linearGradient id="a" x1="4.694" y1="2.833" x2="20.909" y2="4.145" gradientUnits="userSpaceOnUse"><stop stop-color="#4AB9FF"/><stop offset="1" stop-color="#0084F3"/></linearGradient><linearGradient id="b" x1="3.433" y1="7.914" x2="22.153" y2="8.485" gradientUnits="userSpaceOnUse"><stop stop-color="#4AB9FF"/><stop offset="1" stop-color="#0084F3"/></linearGradient></defs></svg>