<svg width="25" height="24" fill="none" xmlns="http://www.w3.org/2000/svg"><path fill-rule="evenodd" clip-rule="evenodd" d="M17.494 7.291a5.274 5.274 0 0 1-5.294 5.292 5.275 5.275 0 0 1-5.294-5.292A5.274 5.274 0 0 1 12.2 2a5.273 5.273 0 0 1 5.294 5.291ZM12.2 22c-4.338 0-8-.705-8-3.425 0-2.721 3.685-3.401 8-3.401 4.338 0 8 .705 8 3.425 0 2.721-3.686 3.401-8 3.401Z" fill="url(#a)"/><defs><linearGradient id="a" x1="4.2" y1="2" x2="20.547" y2="2.288" gradientUnits="userSpaceOnUse"><stop stop-color="#4AB9FF"/><stop offset="1" stop-color="#0084F3"/></linearGradient></defs></svg>