<svg width="25" height="24" viewBox="0 0 25 24" fill="none" xmlns="http://www.w3.org/2000/svg">
<g clip-path="url(#clip0_8643_8322)">
<path d="M11.3889 3.11111C11.3889 3.11111 11.3889 2 12.5 2C13.6111 2 13.6111 3.11111 13.6111 3.11111V4.22222C13.6111 4.22222 13.6111 5.33333 12.5 5.33333C11.3889 5.33333 11.3889 4.22222 11.3889 4.22222V3.11111ZM21.3889 10.8889C21.3889 10.8889 22.5 10.8889 22.5 12C22.5 13.1111 21.3889 13.1111 21.3889 13.1111H20.2778C20.2778 13.1111 19.1667 13.1111 19.1667 12C19.1667 10.8889 20.2778 10.8889 20.2778 10.8889H21.3889ZM4.72222 10.8889C4.72222 10.8889 5.83333 10.8889 5.83333 12C5.83333 13.1111 4.72222 13.1111 4.72222 13.1111H3.61111C3.61111 13.1111 2.5 13.1111 2.5 12C2.5 10.8889 3.61111 10.8889 3.61111 10.8889H4.72222ZM7.56722 6.05167C7.56722 6.05167 8.35278 6.83722 7.56722 7.62278C6.78167 8.40833 5.99611 7.62278 5.99611 7.62278L5.21 6.83778C5.21 6.83778 4.42444 6.05222 5.21 5.26611C5.99611 4.48056 6.78167 5.26611 6.78167 5.26611L7.56722 6.05167ZM19.2339 17.7183C19.2339 17.7183 20.0194 18.5039 19.2339 19.2894C18.4483 20.075 17.6628 19.2894 17.6628 19.2894L16.8772 18.5039C16.8772 18.5039 16.0917 17.7183 16.8772 16.9328C17.6628 16.1472 18.4483 16.9328 18.4483 16.9328L19.2339 17.7183ZM19.0044 7.62278C19.0044 7.62278 18.2189 8.40833 17.4333 7.62278C16.6478 6.83722 17.4333 6.05167 17.4333 6.05167L18.2189 5.26611C18.2189 5.26611 19.0044 4.48056 19.79 5.26611C20.5756 6.05167 19.79 6.83722 19.79 6.83722L19.0044 7.62278ZM7.33778 19.2894C7.33778 19.2894 6.55222 20.075 5.76667 19.2894C4.98111 18.5039 5.76667 17.7183 5.76667 17.7183L6.55222 16.9328C6.55222 16.9328 7.33778 16.1472 8.12333 16.9328C8.90889 17.7183 8.12333 18.5039 8.12333 18.5039L7.33778 19.2894ZM11.3889 19.7778C11.3889 19.7778 11.3889 18.6667 12.5 18.6667C13.6111 18.6667 13.6111 19.7778 13.6111 19.7778V20.8889C13.6111 20.8889 13.6111 22 12.5 22C11.3889 22 11.3889 20.8889 11.3889 20.8889V19.7778Z" fill="url(#paint0_linear_8643_8322)"/>
<path d="M12.5009 17.5564C15.5691 17.5564 18.0564 15.0691 18.0564 12.0009C18.0564 8.93262 15.5691 6.44531 12.5009 6.44531C9.43262 6.44531 6.94531 8.93262 6.94531 12.0009C6.94531 15.0691 9.43262 17.5564 12.5009 17.5564Z" fill="url(#paint1_linear_8643_8322)"/>
</g>
<defs>
<linearGradient id="paint0_linear_8643_8322" x1="2.5" y1="2" x2="22.931" y2="2.45046" gradientUnits="userSpaceOnUse">
<stop stop-color="#4AB9FF"/>
<stop offset="1" stop-color="#0084F3"/>
</linearGradient>
<linearGradient id="paint1_linear_8643_8322" x1="6.94531" y1="6.44531" x2="18.2959" y2="6.69557" gradientUnits="userSpaceOnUse">
<stop stop-color="#4AB9FF"/>
<stop offset="1" stop-color="#0084F3"/>
</linearGradient>
<clipPath id="clip0_8643_8322">
<rect width="20" height="20" fill="white" transform="translate(2.5 2)"/>
</clipPath>
</defs>
</svg>
