<svg width="20" height="20" fill="none" xmlns="http://www.w3.org/2000/svg"><path fill-rule="evenodd" clip-rule="evenodd" d="M10.145 12.681h-.291c-2.003 0-3.627-1.604-3.627-3.58V5.246c0-1.977 1.624-3.58 3.627-3.58h.291c2.003 0 3.627 1.603 3.627 3.58V9.1c0 1.977-1.624 3.581-3.627 3.581Zm5.323-3.695c0-.441.362-.798.807-.798.446 0 .808.357.808.798 0 3.586-2.75 6.547-6.276 6.945v1.605c0 .44-.362.797-.807.797a.802.802 0 0 1-.808-.797v-1.605c-3.526-.397-6.276-3.359-6.276-6.945 0-.441.362-.798.807-.798.446 0 .808.357.808.798 0 2.977 2.453 5.4 5.469 5.4 3.015 0 5.468-2.423 5.468-5.4Z" fill="url(#a)"/><defs><linearGradient id="a" x1="2.916" y1="1.667" x2="17.39" y2="1.938" gradientUnits="userSpaceOnUse"><stop stop-color="#4AB9FF"/><stop offset="1" stop-color="#0084F3"/></linearGradient></defs></svg>