<svg width="24" height="24" fill="none" xmlns="http://www.w3.org/2000/svg"><path fill-rule="evenodd" clip-rule="evenodd" d="M3.464 20.536C4.93 22 7.286 22 12 22c4.714 0 7.071 0 8.535-1.465C22 19.072 22 16.714 22 12s0-7.071-1.465-8.536C19.072 2 16.714 2 12 2S4.929 2 3.464 3.464C2 4.93 2 7.286 2 12c0 4.714 0 7.072 1.464 8.536ZM14.75 16a.75.75 0 0 1-.75.75h-4a.75.75 0 1 1 0-1.5h4a.75.75 0 0 1 .75.75ZM16 12.75a.75.75 0 1 0 0-1.5H8a.75.75 0 1 0 0 1.5h8ZM18.75 8a.75.75 0 0 1-.75.75H6a.75.75 0 0 1 0-1.5h12a.75.75 0 0 1 .75.75Z" fill="url(#a)"/><defs><linearGradient id="a" x1="2" y1="2" x2="22.431" y2="2.45" gradientUnits="userSpaceOnUse"><stop stop-color="#4AB9FF"/><stop offset="1" stop-color="#0084F3"/></linearGradient></defs></svg>