<svg width="20" height="20" fill="none" xmlns="http://www.w3.org/2000/svg"><path opacity=".4" d="m10.813 2.595 1.855 3.728c.137.27.398.458.699.5l4.167.607a.934.934 0 0 1 .614.358c.147.194.21.439.175.68a.927.927 0 0 1-.268.527l-3.02 2.927a.88.88 0 0 0-.267.803l.743 4.115a.93.93 0 0 1-.743 1.06.974.974 0 0 1-.595-.095l-3.718-1.937a.974.974 0 0 0-.877 0L5.86 17.805a.952.952 0 0 1-1.277-.373.943.943 0 0 1-.096-.582l.743-4.117a.884.884 0 0 0-.267-.803l-3.02-2.926a.904.904 0 0 1 0-1.302.898.898 0 0 1 .535-.262l4.167-.608a.928.928 0 0 0 .699-.5l1.789-3.737c.159-.32.489-.52.847-.511h.112a.93.93 0 0 1 .72.51" fill="#1C9CEC"/><path d="M9.993 15.764a1.022 1.022 0 0 0-.46.126l-3.7 1.933a.965.965 0 0 1-1.248-.385.922.922 0 0 1-.096-.578l.739-4.107a.919.919 0 0 0-.268-.813L1.94 9.017a.91.91 0 0 1-.015-1.287l.014-.014a.945.945 0 0 1 .527-.264l4.171-.614a.902.902 0 0 0 .697-.5l1.813-3.784A.921.921 0 0 1 10 2.085c-.006.248-.006 13.511-.006 13.68" fill="#1C9CEC"/></svg>