<svg width="36" height="34" fill="none" xmlns="http://www.w3.org/2000/svg"><rect y=".136" width="36" height="33.728" rx="16.864" fill="url(#a)" fill-opacity=".15"/><path d="M11.341 10.93a.874.874 0 0 1 .447.068c.14.061.259.158.346.279 1.242 1.743 2.735 2.469 4.391 2.633.081-.679.272-1.35.632-1.94.527-.868 1.384-1.506 2.609-1.742 1.692-.326 2.98.262 3.728.981l1.509-.27a.876.876 0 0 1 .47.044.838.838 0 0 1 .37.28.786.786 0 0 1 .047.87l-1.449 2.44c.132 3.52-.888 5.979-3.064 7.672-1.154.898-2.806 1.408-4.62 1.565-1.827.158-3.893-.033-5.946-.608a.843.843 0 0 1-.438-.292.786.786 0 0 1 .003-.971c.11-.14.266-.241.441-.289 1.033-.282 1.82-.525 2.53-.95-1.01-.514-1.754-1.186-2.28-1.951-.731-1.064-1.002-2.252-1.056-3.321-.054-1.07.107-2.062.277-2.777.096-.407.21-.816.365-1.207a.81.81 0 0 1 .27-.349.86.86 0 0 1 .418-.164Z" fill="url(#b)"/><defs><linearGradient id="a" x1="0" y1=".136" x2="36.773" y2="1.001" gradientUnits="userSpaceOnUse"><stop stop-color="#4AB9FF"/><stop offset="1" stop-color="#0084F3"/></linearGradient><linearGradient id="b" x1="10" y1="10.136" x2="26.342" y2="10.556" gradientUnits="userSpaceOnUse"><stop stop-color="#4AB9FF"/><stop offset="1" stop-color="#0084F3"/></linearGradient></defs></svg>