<svg width="24" height="24" fill="none" xmlns="http://www.w3.org/2000/svg">
    <defs>
        <clipPath id="a">
            <rect width="24" height="24" rx="12" fill="#fff" />
        </clipPath>
    </defs>
    <g clip-path="url(#a)">
        <rect width="24" height="24" rx="12" fill="#F93939" />
        <path fill-rule="evenodd" clip-rule="evenodd" d="M-3.2 17.6h33.6V24H-3.2v-6.4Z"
            fill="#00B731" />
        <path fill-rule="evenodd" clip-rule="evenodd" d="M-3.2 0h33.6v6.4H-3.2V0Z" fill="#03BCDB" />
        <path fill-rule="evenodd" clip-rule="evenodd"
            d="M0 8h33.6v8H0V8Zm8-1.74A2.4 2.4 0 0 1 4.8 4 2.4 2.4 0 0 1 8 1.74a2.4 2.4 0 0 0 0 4.52Z"
            fill="#fff" />
        <path opacity=".5" fill-rule="evenodd" clip-rule="evenodd"
            d="M9.6 3.2h1.6v1.6H9.6V3.2Zm1.6-1.6h1.6v1.6h-1.6V1.6Zm1.6 1.6h1.6v1.6h-1.6V3.2Zm1.6-1.6H16v1.6h-1.6V1.6ZM16 3.2h1.6v1.6H16V3.2Zm-1.6 1.6H16v1.6h-1.6V4.8Zm-3.2 0h1.6v1.6h-1.6V4.8Z"
            fill="#fff" />
        <path fill="#fff" d="M0 8h8v8H0z" />
    </g>

</svg>