<svg width="20" height="20" viewBox="0 0 20 20" fill="none" xmlns="http://www.w3.org/2000/svg">
<path fill-rule="evenodd" clip-rule="evenodd" d="M10.1455 12.6812H9.85404C7.85122 12.6812 6.22782 11.0773 6.22782 9.10036V5.24763C6.22782 3.26986 7.85122 1.66675 9.85404 1.66675H10.1455C12.1483 1.66675 13.7725 3.26986 13.7725 5.24763V9.10036C13.7725 11.0773 12.1483 12.6812 10.1455 12.6812ZM15.4686 8.9858C15.4686 8.54497 15.8303 8.18863 16.2759 8.18863C16.7215 8.18863 17.0832 8.54497 17.0832 8.9858C17.0832 12.5723 14.3336 15.5338 10.8075 15.9315V17.5362C10.8075 17.9763 10.4459 18.3334 10.0002 18.3334C9.55382 18.3334 9.19298 17.9763 9.19298 17.5362V15.9315C5.66604 15.5338 2.9165 12.5723 2.9165 8.9858C2.9165 8.54497 3.27816 8.18863 3.72377 8.18863C4.16938 8.18863 4.53103 8.54497 4.53103 8.9858C4.53103 11.9632 6.9843 14.3858 10.0002 14.3858C13.0154 14.3858 15.4686 11.9632 15.4686 8.9858Z" fill="url(#paint0_linear_152_758)"/>
<defs>
<linearGradient id="paint0_linear_152_758" x1="2.9165" y1="1.66675" x2="17.3904" y2="1.938" gradientUnits="userSpaceOnUse">
<stop stop-color="#4AB9FF"/>
<stop offset="1" stop-color="#0084F3"/>
</linearGradient>
</defs>
</svg>
