<svg width="36" height="36" fill="none" xmlns="http://www.w3.org/2000/svg"><rect width="36" height="36" rx="18" fill="url(#a)" fill-opacity=".15"/><path d="M18.822 10c.9.002 1.357.007 1.752.018l.155.006c.179.006.356.014.57.024.85.04 1.431.174 1.94.372a3.9 3.9 0 0 1 1.418.922c.407.4.722.884.923 1.418.197.51.332 1.09.372 1.942.01.213.017.39.024.57l.004.155c.012.394.017.85.019 1.75v1.645c.003.584-.003 1.167-.018 1.75l-.005.156c-.006.18-.014.356-.024.57-.04.851-.176 1.431-.372 1.942a3.92 3.92 0 0 1-.923 1.417c-.4.407-.883.722-1.417.923-.51.197-1.09.332-1.942.372l-.57.024-.155.004c-.394.012-.85.017-1.75.019h-1.644a62.33 62.33 0 0 1-1.752-.018l-.155-.005-.57-.024c-.85-.04-1.431-.175-1.942-.372a3.918 3.918 0 0 1-1.416-.923 3.92 3.92 0 0 1-.924-1.417c-.197-.51-.332-1.09-.371-1.943l-.024-.57-.005-.154a62.81 62.81 0 0 1-.02-1.75v-1.646c-.002-.583.004-1.167.018-1.75l.006-.155c.006-.18.014-.357.024-.57.04-.852.174-1.432.372-1.942a3.92 3.92 0 0 1 .924-1.418c.4-.406.883-.721 1.416-.922.51-.198 1.09-.332 1.943-.372.212-.01.39-.018.57-.024l.154-.005c.584-.014 1.167-.02 1.75-.018L18.823 10ZM18 14a4 4 0 1 0 0 8 4 4 0 0 0 0-8Zm0 1.6a2.398 2.398 0 0 1 1.698 4.097A2.398 2.398 0 0 1 15.6 18a2.4 2.4 0 0 1 2.4-2.4m4.2-2.8a1 1 0 1 0 0 2 1 1 0 0 0 0-2Z" fill="url(#b)"/><defs><linearGradient id="a" x1="0" y1="0" x2="36.776" y2=".811" gradientUnits="userSpaceOnUse"><stop stop-color="#4AB9FF"/><stop offset="1" stop-color="#0084F3"/></linearGradient><linearGradient id="b" x1="10" y1="10" x2="26.345" y2="10.36" gradientUnits="userSpaceOnUse"><stop stop-color="#4AB9FF"/><stop offset="1" stop-color="#0084F3"/></linearGradient></defs></svg>