<svg width="120" height="120" fill="none" xmlns="http://www.w3.org/2000/svg"><path d="M26.887 50.838a3.73 3.73 0 0 1 4.943-2.533l1.43.548c.342.131.668.298.974.499l3.517 2.308c.522.342.965.79 1.3 1.316l1.06 1.662a13.619 13.619 0 0 1 2.14 7.327v9.997a3.745 3.745 0 0 0 5.624 3.24l22.36-12.968a2.317 2.317 0 0 0-.015-4.018L34.52 37.866a15.589 15.589 0 0 1-4.088-3.364l-.457-.53a12.724 12.724 0 0 1-2.744-5.373l-.115-.486a8.451 8.451 0 0 1-.228-1.95v-2.27a3.57 3.57 0 0 1 4.406-3.47l1.166.282a5.94 5.94 0 0 1 1.491.58l59.692 33.128 3.93 2.21c.552.311 1.028.74 1.395 1.255l.18.253a3.549 3.549 0 0 1-1.163 5.157L33.506 99.262a5.816 5.816 0 0 1-2.834.737h-.23c-.25 0-.5-.026-.745-.078l-.087-.018a3.432 3.432 0 0 1-2.724-3.358V50.838Z" fill="url(#a)"/><circle cx="56.666" cy="60" r="5" fill="url(#b)"/><circle cx="37.5" cy="45.833" r="2.5" fill="url(#c)"/><circle cx="23.333" cy="36.667" r="1.667" fill="url(#d)"/><defs><linearGradient id="a" x1="26.887" y1="20" x2="101.581" y2="21.505" gradientUnits="userSpaceOnUse"><stop stop-color="#4AB9FF"/><stop offset="1" stop-color="#0084F3"/></linearGradient><linearGradient id="b" x1="51.666" y1="55" x2="61.882" y2="55.225" gradientUnits="userSpaceOnUse"><stop stop-color="#4AB9FF"/><stop offset="1" stop-color="#0084F3"/></linearGradient><linearGradient id="c" x1="35" y1="43.333" x2="40.108" y2="43.446" gradientUnits="userSpaceOnUse"><stop stop-color="#4AB9FF"/><stop offset="1" stop-color="#0084F3"/></linearGradient><linearGradient id="d" x1="21.666" y1="35" x2="25.071" y2="35.075" gradientUnits="userSpaceOnUse"><stop stop-color="#4AB9FF"/><stop offset="1" stop-color="#0084F3"/></linearGradient></defs></svg>